<svg width="23" height="24" viewBox="0 0 23 24" fill="none" xmlns="http://www.w3.org/2000/svg">
<g clip-path="url(#clip0_41_658)">
<path d="M5.60301 11.0645C5.07556 14.6624 7.62632 17.9979 11.3098 18.5143C14.9846 19.0307 18.3914 16.5333 18.9188 12.927C19.4462 9.3291 16.8955 5.99365 13.212 5.47725C9.52857 4.96931 6.13045 7.46667 5.60301 11.0645ZM16.2643 9.0582C17.0684 10.1079 17.4056 11.3947 17.2154 12.6899C17.0252 13.9852 16.3335 15.1365 15.2613 15.9153C14.1891 16.7026 12.8748 17.0328 11.5519 16.8466C10.2289 16.6603 9.05301 15.9831 8.25752 14.9333C7.45338 13.8836 7.11617 12.5968 7.30639 11.3016C7.49662 10.0063 8.18835 8.85503 9.26053 8.07619C10.3327 7.28889 11.647 6.95873 12.9699 7.14497C14.2842 7.33122 15.4602 8.00847 16.2643 9.0582ZM19.9737 17.7608H23C20.9162 21.4772 16.8868 23.9915 12.2523 23.9915C5.4906 24 0 18.6243 0 11.9958C0 5.3672 5.4906 0 12.2523 0C16.8868 0 20.9248 2.51429 23 6.23069H19.9737C19.7143 5.90053 19.4289 5.57884 19.1177 5.27407C17.2846 3.47936 14.8462 2.48889 12.2523 2.48889C11.6383 2.48889 11.0244 2.54815 10.4365 2.6582C9.75338 3.36931 9.19135 4.18201 8.75902 5.06243C7.30639 5.76508 6.07857 6.89947 5.30038 8.33016C5.31767 8.04233 5.35226 7.7545 5.39549 7.4582C5.54248 6.47619 5.82782 5.46032 6.19962 4.57143C5.92293 4.79153 5.65489 5.02857 5.39549 5.27407C3.56241 7.06878 2.55075 9.45608 2.55075 11.9958C2.55075 14.5354 3.56241 16.9228 5.39549 18.7175C7.22857 20.5122 9.66692 21.5026 12.2609 21.5026C12.8748 21.5026 13.4887 21.4434 14.0767 21.3333C14.7598 20.6222 15.3218 19.8095 15.7541 18.9291C17.2068 18.2265 18.4346 17.0921 19.2128 15.6614C19.1955 15.9492 19.1609 16.237 19.1177 16.5333C18.9707 17.5407 18.668 18.5397 18.2876 19.437C18.5729 19.2085 18.8583 18.9714 19.1177 18.709C19.4289 18.4127 19.7143 18.0995 19.9737 17.7608Z" fill="#7936FB"/>
</g>
<defs>
<clipPath id="clip0_41_658">
<rect width="23" height="24" fill="white"/>
</clipPath>
</defs>
</svg>
