<svg version="1.1" xmlns="http://www.w3.org/2000/svg" xmlns:xlink="http://www.w3.org/1999/xlink" x="0px" y="0px" viewBox="0 0 128 140">
<g>
<path style="fill: #0aadff" d="M123 64.3c0 18-8 34.7-22 46l-.3.2L80.9 128 72 117.9l23.9-21c8.7-8.6 13.6-20.2 13.6-32.5 0-25.2-20.5-45.6-45.6-45.6a45.56 45.56 0 00-31.4 78.6l23 20.1-8.9 10.1-19.8-17.3a58.9 58.9 0 01-22-46c0-32.6 26.5-59.1 59.1-59.1S123 31.7 123 64.3z"></path>
<path style="fill: #dd176d" d="M111.5 80.6c0 10.9-3.8 21.3-10.4 29.7 0 0-.1 0-.1.1l-.3.2-19.6 17.3-.3.2-8.5-10.4 11.3-9.2a34.14 34.14 0 00-19.7-62 34.14 34.14 0 00-19.7 62l.4.3 11.1 9-8.5 10.4-.2-.2-.3-.3-.3-.3-19.6-17.1a47.9 47.9 0 01-10.4-29.7C16.4 54.4 37.7 33 63.9 33s47.6 21.4 47.6 47.6z"></path>
<path style="fill: #f89815" d="M80.9 127.9c0 .1 0 .1 0 0l-9.6-9.4 8.3-8.3c3.9-4.1 6-9.4 6-15 0-12-9.8-21.8-21.8-21.8S42 83.2 42 95.2c0 5.7 2.2 11.1 6.1 15.1l8 8-9.5 9.5-.1-.1-.3-.3-.1-.1-2.7-2.6-4.8-4.8a35.04 35.04 0 01-10.1-24.7c.2-19.5 16-35.2 35.4-35.2s35.2 15.8 35.2 35.2c0 9.3-3.6 18.1-10.1 24.7l-4.8 4.8-3.3 3.2z"></path>
<path style="fill: #86b302" d="M63.9 134.9c-6.5 0-12.6-2.5-17.3-7.1-4.6-4.6-7.1-10.7-7.1-17.3 0-6.5 2.5-12.6 7.1-17.3 4.6-4.6 10.7-7.1 17.3-7.1 6.5 0 12.6 2.5 17.3 7.1 4.6 4.6 7.1 10.7 7.1 17.3 0 6.5-2.5 12.6-7.1 17.3-4.6 4.5-10.8 7.1-17.3 7.1zm0-35.4A10.9 10.9 0 0053 110.4c0 2.9 1.1 5.7 3.2 7.7 4.3 4.3 11.2 4.3 15.5 0 2.1-2.1 3.2-4.8 3.2-7.7 0-2.9-1.1-5.7-3.2-7.7-2.2-2.1-5-3.2-7.8-3.2z">
</path>
</g>
</svg>