<svg version="1.1" xmlns="http://www.w3.org/2000/svg" xmlns:xlink="http://www.w3.org/1999/xlink" x="0px" y="0px" viewBox="0 0 509.6 140.1">
<g>
<path style="fill: #2c2d2d;" d="M481 15.7v108.8c0 5.7-4.7 10.4-10.4 10.4s-10.4-4.7-10.4-10.4V16.1c0-5.7 4.4-10.7 10.1-10.8 5.8-.2 10.7 4.5 10.7 10.4zm13.1-10.4c-5.7.2-10.1 5.1-10.1 10.8v108.4c0 5.7 4.7 10.4 10.4 10.4s10.4-4.7 10.4-10.4V15.7c0-5.9-4.8-10.6-10.7-10.4zm-47.4 36.9c5.7 0 10.4-4.7 10.4-10.4s-4.7-10.4-10.4-10.4-10.4 4.7-10.4 10.4 4.7 10.4 10.4 10.4zm10.4 15v67.2c0 5.7-4.7 10.4-10.4 10.4s-10.4-4.7-10.4-10.4V58.1v-.8c0-5.7 4.7-10.4 10.4-10.4 5.8-.1 10.4 4.6 10.4 10.3zM433.3 80c0-2-.1-4-.4-6-2-15.2-14.7-26.9-30.1-27.1h-.7c-7.5 0-14.6 1.9-20.8 5.2-6.2-3.3-13.3-5.2-20.8-5.2h-.3c-4.9 0-9.5.9-13.9 2.4-.4-.4-.9-.7-1.4-1l-.1-.1c-.5-.3-1-.5-1.5-.7-.1 0-.2-.1-.3-.1-.5-.2-1-.3-1.5-.4h-.3c-.5-.1-1-.1-1.5-.1h-.2-1.1c-.1 0-.2 0-.4.1-.3 0-.5.1-.8.1-4.6 1.1-8 5.2-8 10.1V124.3c0 5.7 4.7 10.4 10.4 10.4S350 130 350 124.3V78.2v-.8a10.29 10.29 0 0114.1-8.8c3.9 1.5 6.6 5.3 6.6 9.7V124.6c0 5.7 4.7 10.4 10.4 10.4s10.4-4.7 10.4-10.4V78.2v-.8a10.4 10.4 0 0111.2-9.6c5.4.4 9.6 5 9.6 10.3v46.4c0 5.7 4.6 10.4 10.4 10.4 5.7 0 10.4-4.7 10.4-10.4v-2.2l.2-42.3zM327.9 90.8c0 5.7-4.6 10.4-10.4 10.4h-54.4a23.22 23.22 0 0035.3 7.7l.6-.6a10.4 10.4 0 0114.6 1.1c3.7 4.3 3.2 10.8-1 14.5l-.1.1-.1.1a43.83 43.83 0 01-28.6 10.6c-13.5 0-25.5-6.1-33.6-15.6-4.3-5.1-7.5-11.3-9.1-18h-45.2c3.8 7.6 11.7 12.8 20.8 12.8 4 0 7.7-1 10.9-2.7 0 0 .1 0 .1-.1 0 0 .1-.1.2-.1a10.37 10.37 0 019.9 18.2c-6.3 3.5-13.5 5.4-21.2 5.4a44 44 0 1133.6-72.4 43.7 43.7 0 0133.6-15.6c24.4.2 44.1 19.9 44.1 44.2zm-90.4-10.3a23.22 23.22 0 00-20.8-12.8c-9.1 0-17 5.2-20.8 12.8h41.6zm67.2 0c-3.8-7.6-11.7-12.8-20.8-12.8s-17 5.2-20.8 12.8h41.6zM183.9 26h-14.2V15.6c0-5.7-4.7-10.4-10.4-10.4s-10.4 4.7-10.4 10.4V26h-14.2c-5.7 0-10.4 4.7-10.4 10.4s4.7 10.4 10.4 10.4h14.2v77.7c0 5.7 4.7 10.4 10.4 10.4s10.4-4.7 10.4-10.4V46.8h14.2c5.7 0 10.4-4.7 10.4-10.4S189.6 26 183.9 26z"></path>
<path style="fill: #0aadff" d="M123 64.3c0 18-8 34.7-22 46l-.3.2L80.9 128 72 117.9l23.9-21c8.7-8.6 13.6-20.2 13.6-32.5 0-25.2-20.5-45.6-45.6-45.6a45.56 45.56 0 00-31.4 78.6l23 20.1-8.9 10.1-19.8-17.3a58.9 58.9 0 01-22-46c0-32.6 26.5-59.1 59.1-59.1S123 31.7 123 64.3z"></path>
<path style="fill: #dd176d" d="M111.5 80.6c0 10.9-3.8 21.3-10.4 29.7 0 0-.1 0-.1.1l-.3.2-19.6 17.3-.3.2-8.5-10.4 11.3-9.2a34.14 34.14 0 00-19.7-62 34.14 34.14 0 00-19.7 62l.4.3 11.1 9-8.5 10.4-.2-.2-.3-.3-.3-.3-19.6-17.1a47.9 47.9 0 01-10.4-29.7C16.4 54.4 37.7 33 63.9 33s47.6 21.4 47.6 47.6z"></path>
<path style="fill: #f89815" d="M80.9 127.9c0 .1 0 .1 0 0l-9.6-9.4 8.3-8.3c3.9-4.1 6-9.4 6-15 0-12-9.8-21.8-21.8-21.8S42 83.2 42 95.2c0 5.7 2.2 11.1 6.1 15.1l8 8-9.5 9.5-.1-.1-.3-.3-.1-.1-2.7-2.6-4.8-4.8a35.04 35.04 0 01-10.1-24.7c.2-19.5 16-35.2 35.4-35.2s35.2 15.8 35.2 35.2c0 9.3-3.6 18.1-10.1 24.7l-4.8 4.8-3.3 3.2z"></path>
<path style="fill: #86b302" d="M63.9 134.9c-6.5 0-12.6-2.5-17.3-7.1-4.6-4.6-7.1-10.7-7.1-17.3 0-6.5 2.5-12.6 7.1-17.3 4.6-4.6 10.7-7.1 17.3-7.1 6.5 0 12.6 2.5 17.3 7.1 4.6 4.6 7.1 10.7 7.1 17.3 0 6.5-2.5 12.6-7.1 17.3-4.6 4.5-10.8 7.1-17.3 7.1zm0-35.4A10.9 10.9 0 0053 110.4c0 2.9 1.1 5.7 3.2 7.7 4.3 4.3 11.2 4.3 15.5 0 2.1-2.1 3.2-4.8 3.2-7.7 0-2.9-1.1-5.7-3.2-7.7-2.2-2.1-5-3.2-7.8-3.2z"></path></g></svg>