{
	"asset":{
		"copyright":"VengefulVegetables",
		"generator":"Khronos glTF Blender I/O v3.5.30",
		"version":"2.0"
	},
	"extensionsUsed":[
		"KHR_materials_specular",
		"KHR_materials_ior"
	],
	"scene":0,
	"scenes":[
		{
			"name":"Scene",
			"nodes":[
				0
			]
		}
	],
	"nodes":[
		{
			"mesh":0,
			"name":"t-shirt.002",
			"rotation":[
				0.70710688829422,
				0,
				0,
				0.7071066498756409
			],
			"scale":[
				0.039488013833761215,
				0.039488013833761215,
				0.039488013833761215
			]
		}
	],
	"materials":[
		{
			"doubleSided":true,
			"extensions":{
				"KHR_materials_specular":{
					"specularColorFactor":[
						0.17785182815030126,
						0.17785182815030126,
						0.17785182815030126
					]
				},
				"KHR_materials_ior":{
					"ior":1.4500000476837158
				}
			},
			"name":"M_shirt",
			"pbrMetallicRoughness":{
				"metallicFactor":0,
				"roughnessFactor":0.8212287425994873
			}
		}
	],
	"meshes":[
		{
			"name":"t-shirt.002",
			"primitives":[
				{
					"attributes":{
						"POSITION":0,
						"TEXCOORD_0":1,
						"NORMAL":2
					},
					"indices":3,
					"material":0
				}
			]
		}
	],
	"accessors":[
		{
			"bufferView":0,
			"componentType":5126,
			"count":199600,
			"max":[
				302.25982666015625,
				90.02058410644531,
				-1051.103271484375
			],
			"min":[
				-299.9200134277344,
				-179.74392700195312,
				-1675.332763671875
			],
			"type":"VEC3"
		},
		{
			"bufferView":1,
			"componentType":5126,
			"count":199600,
			"type":"VEC2"
		},
		{
			"bufferView":2,
			"componentType":5126,
			"count":199600,
			"type":"VEC3"
		},
		{
			"bufferView":3,
			"componentType":5125,
			"count":1119840,
			"type":"SCALAR"
		}
	],
	"bufferViews":[
		{
			"buffer":0,
			"byteLength":2395200,
			"byteOffset":0,
			"target":34962
		},
		{
			"buffer":0,
			"byteLength":1596800,
			"byteOffset":2395200,
			"target":34962
		},
		{
			"buffer":0,
			"byteLength":2395200,
			"byteOffset":3992000,
			"target":34962
		},
		{
			"buffer":0,
			"byteLength":4479360,
			"byteOffset":6387200,
			"target":34963
		}
	],
	"buffers":[
		{
			"byteLength":10866560,
			"uri":"tshirt.bin"
		}
	]
}
